<?xml version="1.0" encoding="utf-8"?>
<!-- Generator: Adobe Illustrator 16.0.0, SVG Export Plug-In . SVG Version: 6.00 Build 0)  -->
<!DOCTYPE svg PUBLIC "-//W3C//DTD SVG 1.1//EN" "http://www.w3.org/Graphics/SVG/1.1/DTD/svg11.dtd">
<svg version="1.1" id="Layer_1" xmlns="http://www.w3.org/2000/svg" xmlns:xlink="http://www.w3.org/1999/xlink" x="0px" y="0px"
	 width="137px" height="141px" viewBox="0 0 137 141" enable-background="new 0 0 137 141" xml:space="preserve">
<g>
	<path fill="#FAAB19" d="M16.365,50.821C10.262,67.566,7.981,83.351,9.568,93.3c-0.075,1.568,3.104,8.365,4.346,9.33
		c6.592,7.604,20.164,16.006,36.904,22.111c16.737,6.092,32.528,8.375,42.498,6.791c1.555,0.059,8.351-3.112,9.301-4.36
		c7.619-6.608,16.011-20.167,22.097-36.888c6.103-16.77,8.384-32.541,6.802-42.509c0.067-1.549-3.106-8.364-4.352-9.322
		c-6.619-7.606-20.164-16-36.882-22.092c-16.732-6.1-32.528-8.375-42.466-6.799c-1.587-0.07-8.397,3.117-9.33,4.352
		C30.856,20.52,22.459,34.073,16.365,50.821z M41.921,50.5c4.04-5.771,9.207-9.69,13.633-10.85c0.565-0.312,4.414-0.188,5.261,0.175
		c5.481,1.49,13.967,5.869,22.805,12.055c8.835,6.191,15.839,12.66,19.101,17.313c0.64,0.672,2.074,4.241,1.966,4.884
		c0.436,4.562-1.487,10.742-5.543,16.508c-4.023,5.783-9.185,9.696-13.598,10.847c-0.579,0.323-4.406,0.207-5.253-0.156
		c-5.492-1.493-13.983-5.872-22.832-12.06c-8.838-6.191-15.86-12.682-19.123-17.329c-0.627-0.659-2.061-4.22-1.947-4.884
		C35.958,62.469,37.887,56.28,41.921,50.5z"/>
	<g>
		<defs>
			<path id="SVGID_1_" d="M16.365,50.821C10.262,67.566,7.981,83.351,9.568,93.3c-0.075,1.568,3.104,8.365,4.346,9.33
				c6.592,7.604,20.164,16.006,36.904,22.111c16.737,6.092,32.528,8.375,42.498,6.791c1.555,0.059,8.351-3.112,9.301-4.36
				c7.619-6.608,16.011-20.167,22.097-36.888c6.103-16.77,8.384-32.541,6.802-42.509c0.067-1.549-3.106-8.364-4.352-9.322
				c-6.619-7.606-20.164-16-36.882-22.092c-16.732-6.1-32.528-8.375-42.466-6.799c-1.587-0.07-8.397,3.117-9.33,4.352
				C30.856,20.52,22.459,34.073,16.365,50.821z M41.921,50.5c4.04-5.771,9.207-9.69,13.633-10.85
				c0.565-0.312,4.414-0.188,5.261,0.175c5.481,1.49,13.967,5.869,22.805,12.055c8.835,6.191,15.839,12.66,19.101,17.313
				c0.64,0.672,2.074,4.241,1.966,4.884c0.436,4.562-1.487,10.742-5.543,16.508c-4.023,5.783-9.185,9.696-13.598,10.847
				c-0.579,0.323-4.406,0.207-5.253-0.156c-5.492-1.493-13.983-5.872-22.832-12.06c-8.838-6.191-15.86-12.682-19.123-17.329
				c-0.627-0.659-2.061-4.22-1.947-4.884C35.958,62.469,37.887,56.28,41.921,50.5z"/>
		</defs>
		<clipPath id="SVGID_2_">
			<use xlink:href="#SVGID_1_"  overflow="visible"/>
		</clipPath>
		<path opacity="0.1" clip-path="url(#SVGID_2_)" fill="#FAAB19" d="M-34.619,94.473c-2.373,21.955-0.441,41.616,4.405,53.127
			c0.393,1.904,6.229,9.145,7.999,9.936c10.207,7.192,29.012,13.281,50.951,15.659c21.96,2.372,41.638,0.446,53.157-4.422
			c1.877-0.387,9.134-6.229,9.887-7.999c7.221-10.215,13.305-29.01,15.664-50.936c2.37-21.981,0.446-41.629-4.433-53.157
			c-0.371-1.885-6.191-9.142-7.98-9.927C84.812,39.573,66.031,33.47,44.11,31.106c-21.96-2.38-41.64-0.433-53.116,4.406
			c-1.923,0.379-9.185,6.242-9.938,8.001C-26.152,53.731-32.236,72.523-34.619,94.473z"/>
		<path opacity="0.3" clip-path="url(#SVGID_2_)" fill="#FAAB19" d="M103.609,28.352C86.469,42.271,73.981,57.577,69.307,69.158
			c-1.065,1.627-2.039,10.874-1.326,12.692c2.157,12.283,11.229,29.87,25.107,47.011c13.913,17.157,29.233,29.658,40.831,34.316
			c1.6,1.043,10.871,2.017,12.663,1.296c12.318-2.167,29.865-11.205,46.995-25.104c17.181-13.924,29.661-29.217,34.319-40.833
			c1.076-1.606,2.063-10.845,1.336-12.666c-2.205-12.296-11.213-29.868-25.107-46.987C190.222,21.717,174.892,9.232,163.34,4.582
			c-1.636-1.092-10.92-2.049-12.695-1.334C138.324,5.415,120.766,14.468,103.609,28.352z"/>
	</g>
</g>
</svg>
